<mxfile host="app.diagrams.net" agent="Mozilla/5.0 (Windows NT 10.0; Win64; x64) AppleWebKit/537.36 (KHTML, like Gecko) Chrome/133.0.0.0 Safari/537.36" version="26.0.11">
  <diagram id="6a731a19-8d31-9384-78a2-239565b7b9f0" name="Page-1">
    <mxGraphModel dx="1120" dy="1337" grid="1" gridSize="10" guides="1" tooltips="1" connect="1" arrows="1" fold="1" page="1" pageScale="1" pageWidth="1169" pageHeight="827" background="none" math="0" shadow="0">
      <root>
        <mxCell id="0" />
        <mxCell id="1" parent="0" />
        <mxCell id="-_igqOoHoKwXAUxy1RUC-55" value="Start" style="strokeWidth=2;html=1;shape=mxgraph.flowchart.start_1;whiteSpace=wrap;" vertex="1" parent="1">
          <mxGeometry x="252.5" y="-130" width="100" height="60" as="geometry" />
        </mxCell>
        <mxCell id="-_igqOoHoKwXAUxy1RUC-60" value="PRINT &quot;Welcome to the Parallel Arrays Program.&quot;:" style="shape=parallelogram;perimeter=parallelogramPerimeter;whiteSpace=wrap;html=1;fixedSize=1;" vertex="1" parent="1">
          <mxGeometry x="210" y="150" width="190" height="120" as="geometry" />
        </mxCell>
        <mxCell id="-_igqOoHoKwXAUxy1RUC-61" value="Declare numbers AS ARRAY OF 15 INTEGERS:" style="rounded=0;whiteSpace=wrap;html=1;" vertex="1" parent="1">
          <mxGeometry x="202.5" y="-20" width="200" height="120" as="geometry" />
        </mxCell>
        <mxCell id="-_igqOoHoKwXAUxy1RUC-62" value="FOR count FROM 0 TO 14 DO:&lt;div&gt;PRINT count + &quot;. Please enter an integer:&quot;&amp;nbsp;&lt;/div&gt;&lt;div&gt;READ numbers[count]:&lt;/div&gt;" style="rhombus;whiteSpace=wrap;html=1;" vertex="1" parent="1">
          <mxGeometry x="190" y="330" width="230" height="224" as="geometry" />
        </mxCell>
        <mxCell id="-_igqOoHoKwXAUxy1RUC-63" value="END FOR" style="shape=parallelogram;perimeter=parallelogramPerimeter;whiteSpace=wrap;html=1;fixedSize=1;" vertex="1" parent="1">
          <mxGeometry x="207.5" y="600" width="190" height="130" as="geometry" />
        </mxCell>
        <mxCell id="-_igqOoHoKwXAUxy1RUC-64" value="end" style="strokeWidth=2;html=1;shape=mxgraph.flowchart.start_1;whiteSpace=wrap;" vertex="1" parent="1">
          <mxGeometry x="255" y="1640" width="100" height="60" as="geometry" />
        </mxCell>
        <mxCell id="-_igqOoHoKwXAUxy1RUC-65" value="FOR count FROM 0 TO 14 DO:&lt;div&gt;PRINT count + &quot;. The integer is: &quot;&amp;nbsp;&lt;/div&gt;&lt;div&gt;+ numbers[count]:&lt;/div&gt;" style="shape=parallelogram;perimeter=parallelogramPerimeter;whiteSpace=wrap;html=1;fixedSize=1;" vertex="1" parent="1">
          <mxGeometry x="200" y="800" width="205" height="150" as="geometry" />
        </mxCell>
        <mxCell id="-_igqOoHoKwXAUxy1RUC-66" value="END FOR" style="rhombus;whiteSpace=wrap;html=1;" vertex="1" parent="1">
          <mxGeometry x="210" y="1010" width="185" height="186" as="geometry" />
        </mxCell>
        <mxCell id="-_igqOoHoKwXAUxy1RUC-67" value="PRINT &quot;Thank you for using the Parallel Arrays Program. &quot;:" style="shape=parallelogram;perimeter=parallelogramPerimeter;whiteSpace=wrap;html=1;fixedSize=1;" vertex="1" parent="1">
          <mxGeometry x="200" y="1260" width="205" height="130" as="geometry" />
        </mxCell>
        <mxCell id="-_igqOoHoKwXAUxy1RUC-68" value="PRINT &quot;See you again soon!&quot;:" style="shape=parallelogram;perimeter=parallelogramPerimeter;whiteSpace=wrap;html=1;fixedSize=1;" vertex="1" parent="1">
          <mxGeometry x="210" y="1450" width="190" height="130" as="geometry" />
        </mxCell>
        <mxCell id="-_igqOoHoKwXAUxy1RUC-69" value="" style="endArrow=classic;html=1;rounded=0;fontSize=12;startSize=8;endSize=8;curved=1;" edge="1" parent="1">
          <mxGeometry width="50" height="50" relative="1" as="geometry">
            <mxPoint x="302" y="1580" as="sourcePoint" />
            <mxPoint x="302.5" y="1640" as="targetPoint" />
          </mxGeometry>
        </mxCell>
        <mxCell id="-_igqOoHoKwXAUxy1RUC-71" value="" style="endArrow=classic;html=1;rounded=0;fontSize=12;startSize=8;endSize=8;curved=1;" edge="1" parent="1">
          <mxGeometry width="50" height="50" relative="1" as="geometry">
            <mxPoint x="300" y="1390" as="sourcePoint" />
            <mxPoint x="300.5" y="1450" as="targetPoint" />
          </mxGeometry>
        </mxCell>
        <mxCell id="-_igqOoHoKwXAUxy1RUC-72" value="" style="endArrow=classic;html=1;rounded=0;fontSize=12;startSize=8;endSize=8;curved=1;" edge="1" parent="1">
          <mxGeometry width="50" height="50" relative="1" as="geometry">
            <mxPoint x="302" y="1196" as="sourcePoint" />
            <mxPoint x="303" y="1260" as="targetPoint" />
          </mxGeometry>
        </mxCell>
        <mxCell id="-_igqOoHoKwXAUxy1RUC-73" value="" style="endArrow=classic;html=1;rounded=0;fontSize=12;startSize=8;endSize=8;curved=1;" edge="1" parent="1">
          <mxGeometry width="50" height="50" relative="1" as="geometry">
            <mxPoint x="302" y="950" as="sourcePoint" />
            <mxPoint x="302.5" y="1010" as="targetPoint" />
          </mxGeometry>
        </mxCell>
        <mxCell id="-_igqOoHoKwXAUxy1RUC-74" style="fontStyle=1;strokeColor=#003366;strokeWidth=1;html=1;entryX=0.556;entryY=-0.013;entryDx=0;entryDy=0;entryPerimeter=0;" edge="1" parent="1">
          <mxGeometry relative="1" as="geometry">
            <mxPoint x="302.52" y="730" as="sourcePoint" />
            <mxPoint x="302" y="798.0500000000002" as="targetPoint" />
          </mxGeometry>
        </mxCell>
        <mxCell id="-_igqOoHoKwXAUxy1RUC-75" style="fontStyle=1;strokeColor=#003366;strokeWidth=1;html=1;entryX=0.511;entryY=0;entryDx=0;entryDy=0;entryPerimeter=0;" edge="1" parent="1" target="-_igqOoHoKwXAUxy1RUC-63">
          <mxGeometry relative="1" as="geometry">
            <mxPoint x="304.5" y="554" as="sourcePoint" />
            <mxPoint x="304.5" y="594" as="targetPoint" />
          </mxGeometry>
        </mxCell>
        <mxCell id="-_igqOoHoKwXAUxy1RUC-76" style="fontStyle=1;strokeColor=#003366;strokeWidth=1;html=1;entryX=0.5;entryY=0;entryDx=0;entryDy=0;" edge="1" parent="1" target="-_igqOoHoKwXAUxy1RUC-62">
          <mxGeometry relative="1" as="geometry">
            <mxPoint x="302" y="270" as="sourcePoint" />
            <mxPoint x="305" y="330" as="targetPoint" />
          </mxGeometry>
        </mxCell>
        <mxCell id="-_igqOoHoKwXAUxy1RUC-77" style="fontStyle=1;strokeColor=#003366;strokeWidth=1;html=1;entryX=0.5;entryY=0;entryDx=0;entryDy=0;" edge="1" parent="1" target="-_igqOoHoKwXAUxy1RUC-60">
          <mxGeometry relative="1" as="geometry">
            <mxPoint x="304.5" y="100" as="sourcePoint" />
            <mxPoint x="304.5" y="140" as="targetPoint" />
          </mxGeometry>
        </mxCell>
        <mxCell id="-_igqOoHoKwXAUxy1RUC-78" style="fontStyle=1;strokeColor=#003366;strokeWidth=1;html=1;exitX=0.52;exitY=1;exitDx=0;exitDy=0;exitPerimeter=0;" edge="1" parent="1" source="-_igqOoHoKwXAUxy1RUC-55">
          <mxGeometry relative="1" as="geometry">
            <mxPoint x="304.5" y="-60" as="sourcePoint" />
            <mxPoint x="304.5" y="-20" as="targetPoint" />
          </mxGeometry>
        </mxCell>
      </root>
    </mxGraphModel>
  </diagram>
</mxfile>
